<svg
          width="147"
          height="34"
          viewBox="0 0 147 34"
          fill="none"
          xmlns="http://www.w3.org/2000/svg"
        >
          <path
            fill-rule="evenodd"
            clip-rule="evenodd"
            d="M17 34C26.3889 34 34 26.3888 34 17C34 7.61116 26.3889 0 17 0C7.61116 0 0 7.61116 0 17C0 26.3888 7.61116 34 17 34ZM19.6239 13.1347C21.073 11.6855 21.073 9.33603 19.6239 7.88687C18.1748 6.43772 15.8253 6.43772 14.3761 7.88687C12.927 9.33603 12.927 11.6855 14.3761 13.1347L17 15.7586L19.6239 13.1347ZM20.8654 19.6239C22.3145 21.0731 24.664 21.0731 26.1132 19.6239C27.5623 18.1748 27.5623 15.8253 26.1132 14.3761C24.664 12.927 22.3145 12.927 20.8654 14.3761L18.2415 17.0001L20.8654 19.6239ZM19.6239 26.1132C21.073 24.664 21.073 22.3145 19.6239 20.8654L17 18.2415L14.3761 20.8654C12.927 22.3145 12.927 24.664 14.3761 26.1132C15.8253 27.5623 18.1748 27.5623 19.6239 26.1132ZM7.88684 19.6239C6.43773 18.1748 6.43773 15.8253 7.88684 14.3761C9.33604 12.927 11.6855 12.927 13.1347 14.3761L15.7586 17.0001L13.1347 19.6239C11.6855 21.0731 9.33604 21.0731 7.88684 19.6239Z"
            fill="url(#paint0_linear_14_267)"
          />
          <path
            d="M46.0667 15.2333C43.8 15.2333 42.2333 13.7 42.2333 11.5C42.2333 9.3 43.8 7.76667 46.0667 7.76667C47.6 7.76667 49.175 8.45 49.5167 10.5083H47.925C47.625 9.60833 46.9333 9.20833 46.0667 9.20833C44.825 9.20833 43.875 10.15 43.875 11.5C43.875 12.8417 44.825 13.7917 46.0667 13.7917C46.9333 13.7917 47.625 13.3917 47.925 12.4833H49.5167C49.175 14.55 47.6167 15.2333 46.0667 15.2333ZM55.2456 8H56.9122V15H55.2456V12.1917H51.7706V15H50.1122V8H51.7706V10.8083H55.2456V8ZM63.4053 15L62.972 13.825H59.522L59.0887 15H57.372L60.0803 8H62.4137L65.1303 15H63.4053ZM59.9887 12.5667H62.5053L61.4053 9.575H61.0887L59.9887 12.5667ZM71.0414 8V9.39167H68.4164V15H66.7497V9.39167H64.1331V8H71.0414ZM78.4419 11.3V15H77.4003L77.3836 13.9833C76.9003 14.7167 76.0169 15.2333 74.7753 15.2333C72.6586 15.2333 71.0419 13.7 71.0419 11.5C71.0419 9.3 72.6086 7.76667 74.9086 7.76667C76.4253 7.76667 77.9586 8.475 78.3336 10.2333H76.6753C76.4086 9.6 75.7753 9.20833 74.9336 9.20833C73.6336 9.20833 72.6836 10.15 72.6836 11.5C72.6836 12.8417 73.6419 13.7917 74.9003 13.7917C75.6003 13.7917 76.5753 13.4833 76.8169 12.425H74.7836V11.3H78.4419ZM79.1943 15V8H82.8526C84.7193 8 85.7359 8.89167 85.7359 10.5667C85.7359 12.2333 84.7193 13.125 82.8526 13.125H80.8526V15H79.1943ZM80.8526 11.7333H82.7443C83.5609 11.7333 84.0693 11.3417 84.0693 10.5667C84.0693 9.78333 83.5609 9.39167 82.7443 9.39167H80.8526V11.7333ZM92.9945 8V9.39167H90.3695V15H88.7029V9.39167H86.0862V8H92.9945ZM95.7665 15V8H97.4249V15H95.7665ZM98.1396 15V8H100.265L101.998 12.9083H102.123L103.856 8H105.981V15H104.39V10.7833H104.248L102.706 15H101.415L99.8729 10.7833H99.7313V15H98.1396ZM112.478 15L112.044 13.825H108.594L108.161 15H106.444L109.153 8H111.486L114.203 15H112.478ZM109.061 12.5667H111.578L110.478 9.575H110.161L109.061 12.5667ZM121.303 11.3V15H120.262L120.245 13.9833C119.762 14.7167 118.878 15.2333 117.637 15.2333C115.52 15.2333 113.903 13.7 113.903 11.5C113.903 9.3 115.47 7.76667 117.77 7.76667C119.287 7.76667 120.82 8.475 121.195 10.2333H119.537C119.27 9.6 118.637 9.20833 117.795 9.20833C116.495 9.20833 115.545 10.15 115.545 11.5C115.545 12.8417 116.503 13.7917 117.762 13.7917C118.462 13.7917 119.437 13.4833 119.678 12.425H117.645V11.3H121.303ZM122.056 15V8H127.947V9.35833H123.714V10.8917H127.797V12.0917H123.714V13.6333H127.947V15H122.056ZM49.6333 25.3V29H48.5917L48.575 27.9833C48.0917 28.7167 47.2083 29.2333 45.9667 29.2333C43.85 29.2333 42.2333 27.7 42.2333 25.5C42.2333 23.3 43.8 21.7667 46.1 21.7667C47.6167 21.7667 49.15 22.475 49.525 24.2333H47.8667C47.6 23.6 46.9667 23.2083 46.125 23.2083C44.825 23.2083 43.875 24.15 43.875 25.5C43.875 26.8417 44.8333 27.7917 46.0917 27.7917C46.7917 27.7917 47.7667 27.4833 48.0083 26.425H45.975V25.3H49.6333ZM50.3857 29V22H56.2773V23.3583H52.044V24.8917H56.1273V26.0917H52.044V27.6333H56.2773V29H50.3857ZM56.997 29V22H58.922L62.172 26.7083H62.3303V22H63.9553V29H62.0637L58.772 24.2917H58.622V29H56.997ZM64.663 29V22H70.5547V23.3583H66.3214V24.8917H70.4047V26.0917H66.3214V27.6333H70.5547V29H64.663ZM77.991 29H76.341L75.191 26.9167H72.9327V29H71.2743V22H74.9493C76.8243 22 77.816 22.875 77.816 24.5083C77.816 25.4833 77.341 26.1917 76.6243 26.5833L77.991 29ZM72.9327 23.3917V25.6417H74.8577C75.6993 25.6417 76.166 25.2583 76.166 24.5167C76.166 23.775 75.6993 23.3917 74.8577 23.3917H72.9327ZM84.2061 29L83.7728 27.825H80.3228L79.8895 29H78.1728L80.8811 22H83.2145L85.9311 29H84.2061ZM80.7895 26.5667H83.3061L82.2061 23.575H81.8895L80.7895 26.5667ZM91.8422 22V23.3917H89.2172V29H87.5505V23.3917H84.9339V22H91.8422ZM95.6844 29.2333C93.401 29.2333 91.8427 27.7 91.8427 25.5C91.8427 23.3 93.401 21.7667 95.6844 21.7667C97.976 21.7667 99.5344 23.3 99.5344 25.5C99.5344 27.7 97.976 29.2333 95.6844 29.2333ZM95.6844 27.7917C96.9344 27.7917 97.8844 26.875 97.8844 25.5C97.8844 24.125 96.9344 23.2083 95.6844 23.2083C94.4427 23.2083 93.4844 24.125 93.4844 25.5C93.4844 26.875 94.4427 27.7917 95.6844 27.7917ZM106.839 29H105.189L104.039 26.9167H101.78V29H100.122V22H103.797C105.672 22 106.664 22.875 106.664 24.5083C106.664 25.4833 106.189 26.1917 105.472 26.5833L106.839 29ZM101.78 23.3917V25.6417H103.705C104.547 25.6417 105.014 25.2583 105.014 24.5167C105.014 23.775 104.547 23.3917 103.705 23.3917H101.78Z"
            fill="white"
          />
          <defs>
            <linearGradient
              id="paint0_linear_14_267"
              x1="-0.0863265"
              y1="-5.79976"
              x2="49.6387"
              y2="58.8003"
              gradientUnits="userSpaceOnUse"
            >
              <stop stop-color="#724FDF" />
              <stop offset="1" stop-color="#CF8BF7" />
            </linearGradient>
          </defs>
        </svg>